<svg width="158" height="174" viewBox="0 0 158 174" fill="none" xmlns="http://www.w3.org/2000/svg">
<path d="M23.334 150.001C23.6365 153.575 23.9375 157.074 25.831 159.986C26.8901 161.614 28.4526 163.067 29.8803 164.393C30.9995 165.432 32.049 166.405 32.6584 167.307C34.0915 169.429 33.1114 171.146 31.6915 172.131C30.2865 173.105 28.4124 173.407 26.6115 173.701C26.6 173.703 26.5884 173.704 26.5767 173.704C22.7846 173.758 18.9132 173.819 16.0207 172.493L16.0196 172.492C15.9548 172.463 15.8882 172.431 15.8243 172.4C13.0327 171.039 11.1846 168.39 9.37804 165.808L9.45692 165.88L9.41977 165.859C5.52619 163.688 1.51969 161.46 0.380026 159.556C-0.845527 157.508 1.14191 155.871 2.81155 154.451L2.7512 154.529C4.06897 151.777 5.41226 148.966 6.42318 147.798C7.14772 146.96 7.77146 146.889 8.35104 147.172C8.59192 147.289 8.81574 147.463 9.01542 147.617L9.02493 147.625L8.73524 147.61L13.7116 144.159L13.6686 144.198C17.7208 139.586 21.7611 134.988 24.6076 131C25.7892 129.345 26.766 127.793 27.6976 126.312C28.5404 124.973 29.3477 123.69 30.2333 122.449C30.7237 121.762 31.2385 121.087 31.7979 120.421C34.481 117.226 38.1705 114.257 41.6329 112.343C42.411 111.913 43.1772 111.536 43.9083 111.177C44.5875 110.843 45.2353 110.524 45.8439 110.188C47.4984 109.273 48.8316 108.242 49.6179 106.487C51.0286 103.338 50.7123 97.8329 50.383 92.2239L50.4953 92.412L47.4333 90.5207C47.3218 90.4518 47.2872 90.3054 47.3561 90.1938C47.425 90.0822 47.5713 90.0476 47.6829 90.1165L50.7449 92.0079C50.8107 92.0486 50.8526 92.1188 50.8571 92.196C51.1829 97.7453 51.5216 103.399 50.0513 106.681C49.2037 108.572 47.7659 109.667 46.0736 110.603C45.4535 110.946 44.7947 111.27 44.1178 111.603C43.3854 111.963 42.6293 112.335 41.8626 112.758C38.4493 114.646 34.8058 117.578 32.1616 120.727C31.6116 121.381 31.1044 122.046 30.6198 122.725C29.7436 123.953 28.9437 125.224 28.0996 126.565C27.1686 128.044 26.1848 129.608 24.9942 131.276C22.1307 135.288 18.0726 139.906 14.0257 144.511C14.0129 144.525 13.9985 144.538 13.9826 144.549L9.00622 148C8.91748 148.061 8.79841 148.055 8.71641 147.985L8.72582 147.993C8.5174 147.832 8.33262 147.691 8.14333 147.598C7.80041 147.431 7.40037 147.394 6.7827 148.108C5.82516 149.215 4.51541 151.945 3.17988 154.734C3.16549 154.764 3.14493 154.79 3.11954 154.812C1.30643 156.354 -0.188913 157.679 0.787864 159.311C1.84364 161.075 5.68236 163.23 9.65126 165.443L9.68843 165.464C9.71975 165.482 9.74673 165.506 9.76731 165.535C11.5901 168.14 13.3713 170.675 16.0324 171.972C16.092 172.001 16.157 172.032 16.2175 172.06L16.2185 172.06C18.9929 173.332 22.7421 173.283 26.5701 173.228L26.5353 173.231C28.3651 172.933 30.1214 172.641 31.4211 171.74C32.7058 170.849 33.5045 169.407 32.2651 167.572C31.6933 166.726 30.6924 165.794 29.5574 164.74C28.1389 163.423 26.53 161.93 25.4332 160.244C23.4635 157.216 23.1615 153.591 22.8611 150.041C22.85 149.91 22.947 149.795 23.0776 149.784C23.2083 149.773 23.3232 149.87 23.3343 150.001L23.334 150.001Z" fill="black"/>
<path d="M47.3489 90.1834C51.8525 76.9482 56.3657 63.683 60.0525 56.4409C63.7586 49.1606 66.6526 47.9232 69.5438 46.7023C69.6646 46.6513 69.8039 46.708 69.8549 46.8288C69.9059 46.9497 69.8493 47.089 69.7285 47.14C66.9247 48.3237 64.1237 49.4902 60.4759 56.6562C56.8086 63.8602 52.3085 77.0833 47.7988 90.3363C47.7565 90.4604 47.6216 90.5269 47.4974 90.4846C47.3733 90.4424 47.3066 90.3075 47.3489 90.1834Z" fill="black"/>
<path d="M69.3278 46.5791L76.9324 41.136L76.8378 41.2822C77.0288 40.3341 77.2228 39.3705 77.7381 38.0733C78.2501 36.7843 79.0796 35.1665 79.901 33.5638C79.9608 33.4471 80.1039 33.4009 80.2206 33.4608C80.3374 33.5206 80.3835 33.6637 80.3236 33.7804C79.4985 35.3905 78.6812 36.9855 78.1794 38.2488C77.6808 39.504 77.4935 40.4323 77.3034 41.3762C77.2915 41.4351 77.2577 41.4874 77.2088 41.5224L69.6042 46.9655C69.4975 47.0418 69.3492 47.0172 69.2729 46.9106C69.1966 46.8039 69.2211 46.6554 69.3278 46.5791Z" fill="black"/>
<path d="M79.71 33.993L77.7614 33.8533L77.9363 33.7939C75.104 36.3142 72.2527 38.8521 68.6725 40.9264C65.0956 42.9985 60.7971 44.6038 56.5235 46.2004L56.5832 46.1677L45.538 54.4778L45.6059 54.3975L41.9946 61.3402C41.9648 61.3977 41.9127 61.4405 41.8505 61.4586L38.3392 62.483C38.2133 62.5197 38.0814 62.4474 38.0447 62.3215C38.008 62.1956 38.0803 62.0637 38.2062 62.027L41.7175 61.0026L41.5733 61.121L45.1845 54.1783C45.2009 54.1468 45.2241 54.1194 45.2525 54.0981L56.2977 45.7881C56.3159 45.7744 56.336 45.7634 56.3573 45.7554C60.6403 44.1552 64.8988 42.5635 68.4343 40.5151C71.9668 38.4687 74.784 35.9627 77.6201 33.439C77.668 33.3964 77.7311 33.3749 77.795 33.3795L79.7435 33.5192C79.8744 33.5286 79.9728 33.6422 79.9634 33.7731C79.954 33.9039 79.8404 34.0024 79.7096 33.993L79.71 33.993Z" fill="black"/>
<path d="M38.4657 62.6109C37.0027 64.0849 35.4821 65.6251 32.7908 65.8754C30.1419 66.1218 26.3658 65.1109 22.6573 64.1219C22.5306 64.0881 22.4552 63.9579 22.489 63.8312C22.5228 63.7044 22.653 63.6291 22.7797 63.6629C26.5253 64.6619 30.2027 65.639 32.7468 65.4024C35.2484 65.1698 36.6597 63.7561 38.1283 62.2762C38.2207 62.1831 38.3711 62.1826 38.4642 62.275C38.5572 62.3674 38.5581 62.5178 38.4657 62.6109Z" fill="black"/>
<path d="M22.8711 63.9974L22.8564 64.0037C19.2374 65.5585 15.4508 67.2024 12.9933 66.2005C11.4797 65.5834 10.5202 63.9991 9.85696 62.0242C9.41635 60.7122 9.09759 59.2008 8.83811 57.6265C8.19313 53.7133 7.87056 49.1851 9.71999 47.048C11.5816 44.8969 15.5574 45.262 19.3058 45.5835L19.1601 45.6184L19.1723 45.6108C23.1488 43.1388 27.2289 40.5929 30.2046 40.6293C33.2423 40.6664 35.0813 43.3661 36.8276 45.8973C36.9021 46.0053 36.875 46.1532 36.7671 46.2277C36.6591 46.3022 36.5112 46.275 36.4367 46.1671C34.6436 43.5681 32.9432 41.1379 30.1985 41.1041C27.3976 41.0698 23.4632 43.5024 19.4228 46.0141L19.4106 46.0217C19.367 46.0487 19.3159 46.061 19.2649 46.0566C15.3902 45.7243 11.7431 45.4356 10.0787 47.3587C8.40205 49.296 8.65053 53.5702 9.30629 57.5489C9.5641 59.113 9.87794 60.5957 10.3067 61.8726C10.9604 63.819 11.8608 65.2257 13.1721 65.7602C15.3983 66.6678 18.9476 65.1653 22.6686 63.5669L22.6834 63.5605C22.8039 63.5088 22.9435 63.5645 22.9953 63.685C23.047 63.8056 22.9913 63.9452 22.8708 63.997L22.8711 63.9974Z" fill="black"/>
<path d="M25.8252 59.6724C26.1485 57.7191 26.4621 55.8124 26.2881 54.2566C26.1156 52.7137 25.4607 51.504 24.7803 50.2523C24.7421 50.1821 24.7418 50.0974 24.7795 50.027C25.8827 47.9617 27.0345 45.7869 28.4299 44.9618C28.8283 44.7262 29.2442 44.6001 29.6532 44.5558C30.7111 44.4411 31.7217 44.8725 32.3021 45.368C33.1442 46.0869 33.0915 46.9455 33.0534 47.6827C33.0504 47.7407 33.0262 47.7957 32.9855 47.8371C32.3006 48.5328 31.6853 49.1662 31.4991 49.7258C31.3248 50.2496 31.528 50.7345 31.7868 51.3217C31.8194 51.3958 31.8121 51.4814 31.7673 51.5489C31.2628 52.309 30.8579 52.9445 30.9195 53.4291C30.9793 53.8986 31.4955 54.2986 32.1634 54.7889C32.2143 54.8263 32.2483 54.8825 32.2577 54.945C32.2671 55.0075 32.2512 55.0711 32.2135 55.1219C31.6726 55.8507 31.2694 56.4281 31.3694 56.8723C31.4717 57.3263 32.1129 57.74 32.9263 58.2377C32.9952 58.2799 33.0379 58.3541 33.0398 58.4348C33.0416 58.5156 33.0024 58.5917 32.9355 58.637C32.343 59.0381 32.0623 59.2744 32.1686 59.5795C32.3183 60.0092 33.1093 60.6348 34.0244 61.3426C34.097 61.3988 34.1307 61.4917 34.1111 61.5813C34.0914 61.6709 34.022 61.7412 33.9326 61.7619C33.4006 61.8849 32.853 62.0117 32.2801 62.0738C31.665 62.1405 31.0174 62.1331 30.3131 61.9692C28.9683 61.6563 27.4324 60.7725 25.9412 59.917C25.8552 59.8677 25.8091 59.7702 25.8252 59.6724ZM26.2937 59.7498L26.1775 59.505C27.6906 60.3731 29.159 61.2129 30.4206 61.5065C31.0625 61.6558 31.6551 61.6637 32.2288 61.6015C32.769 61.543 33.2893 61.423 33.8255 61.2991L33.7337 61.7183C32.8935 61.0684 31.9292 60.3363 31.72 59.7358C31.4674 59.0109 32.2241 58.5449 32.6692 58.2436L32.6783 58.6429C31.957 58.2015 31.0636 57.6761 30.906 56.9767C30.7462 56.2676 31.358 55.4775 31.832 54.8387L31.8822 55.1717C31.2868 54.7346 30.5396 54.2072 30.4482 53.489C30.3588 52.786 30.9149 51.9738 31.3715 51.2861L31.352 51.5133C31.1073 50.9582 30.807 50.3008 31.0483 49.5757C31.2777 48.8862 31.997 48.1639 32.6469 47.5038L32.5789 47.6581C32.6176 46.9096 32.6416 46.2825 31.9936 45.7293C31.4974 45.3057 30.6134 44.9294 29.7042 45.028C29.3578 45.0655 29.0076 45.1718 28.6715 45.3706C27.4194 46.111 26.3331 48.1262 25.1982 50.2507L25.1974 50.0254C25.8738 51.2697 26.5756 52.556 26.76 54.2037C26.9429 55.8387 26.6134 57.8178 26.2937 59.7498Z" fill="black"/>
<path d="M36.611 45.8991L36.6202 45.8957C37.3297 45.6323 38.0656 45.3602 39.1992 45.3128C40.3211 45.2659 41.8325 45.4399 43.3154 45.61L43.1161 45.6824C48.5657 39.9441 54.0314 34.1886 58.106 30.8137C62.1961 27.4256 64.8916 26.4302 67.5704 25.4412C67.5759 25.4392 67.5814 25.4374 67.587 25.4358C68.801 25.0864 70.0193 24.7421 73.4296 22.2341C76.8528 19.7166 82.4633 15.0349 88.0841 10.3442C88.1848 10.2602 88.3345 10.2737 88.4185 10.3744C88.5026 10.4751 88.489 10.6249 88.3883 10.7089C82.7736 15.3944 77.149 20.0886 73.7113 22.6171C70.2604 25.155 68.9919 25.5262 67.7188 25.8925L67.7353 25.887C65.0797 26.8671 62.4404 27.8403 58.4091 31.1797C54.362 34.5321 48.9196 40.2621 43.4609 46.0099C43.4095 46.0639 43.3357 46.0907 43.2616 46.0823C41.7645 45.9105 40.2956 45.7427 39.2195 45.7877C38.1643 45.8319 37.4866 46.0813 36.7858 46.3414L36.7766 46.3448C36.6537 46.3904 36.5171 46.3277 36.4714 46.2048C36.4258 46.0818 36.4885 45.9451 36.6115 45.8995L36.611 45.8991Z" fill="black"/>
<path d="M87.8957 10.7324L87.5783 9.8932C87.5547 9.8308 87.5585 9.76134 87.5886 9.70183C87.6188 9.64231 87.6726 9.59825 87.7368 9.58036C89.5689 9.07081 91.3658 8.56966 93.3494 7.16041C93.9279 6.74933 94.524 6.25989 95.1545 5.74198C95.8407 5.17825 96.5656 4.58267 97.3381 4.03386C98.2942 3.35454 99.3303 2.74154 100.471 2.34285C101.847 1.86217 103.358 1.69916 104.929 1.69916C106.676 1.69917 108.513 1.90125 110.334 2.1013C110.364 2.10456 110.393 2.11343 110.419 2.12743C111.776 2.84493 113.088 3.53587 114.879 3.62172C115.015 3.62827 115.155 3.63133 115.298 3.63131C116.114 3.63133 117.014 3.53271 117.958 3.42899C118.954 3.31958 119.997 3.20487 121.005 3.20487H121.006C121.075 3.20488 121.147 3.20543 121.216 3.20659C123.407 3.24278 125.397 3.86448 127.351 4.47324L127.264 4.46304L134.144 3.99288L133.983 4.07145C134.655 3.32036 135.385 2.49663 136.096 2.20252C136.333 2.10427 136.567 2.06446 136.795 2.06445C137.274 2.06446 137.73 2.24232 138.137 2.39786L137.963 2.39922C140.921 1.21266 143.935 0 146.859 0C147.765 0 148.665 0.116231 149.553 0.385932C153.298 1.52283 156.791 5.37221 157.724 9.18008C158.662 13.0111 157.009 16.7676 154.904 19.2952C152.962 21.6275 150.618 22.9362 148.941 23.8741C148.79 23.9584 148.659 24.0318 148.519 24.1108C146.833 25.0633 145.994 25.6673 145.151 26.2742L145.25 26.0835C145.23 28.4103 145.211 30.7863 144.693 32.5689C144.17 34.3686 143.144 35.5532 142.153 36.7005C142.067 36.7998 141.917 36.8107 141.818 36.725C141.718 36.6392 141.707 36.4893 141.793 36.39C142.788 35.2386 143.747 34.1248 144.237 32.4364C144.733 30.7308 144.755 28.4297 144.775 26.0792C144.776 26.0036 144.812 25.9327 144.874 25.8885C145.724 25.2768 146.578 24.6616 148.285 23.6971C148.427 23.6171 148.558 23.5439 148.709 23.4594C150.388 22.5209 152.659 21.2487 154.539 18.991C156.589 16.5295 158.151 12.9243 157.262 9.29279C156.368 5.63848 152.991 1.9254 149.415 0.840165C148.577 0.585581 147.724 0.474708 146.859 0.474708C144.045 0.47469 141.121 1.6442 138.14 2.83978C138.085 2.86206 138.023 2.86255 137.967 2.84113C137.543 2.67895 137.171 2.53913 136.795 2.53913C136.624 2.53913 136.453 2.56856 136.277 2.64113C135.691 2.88375 135.043 3.59947 134.337 4.38791C134.296 4.43406 134.238 4.46224 134.176 4.46646L127.297 4.93662C127.267 4.93862 127.238 4.93517 127.21 4.92641C125.247 4.3148 123.32 3.71609 121.208 3.6812C121.142 3.68011 121.072 3.67955 121.006 3.67955H121.005C120.028 3.67955 119.011 3.7909 118.01 3.90083C117.072 4.00383 116.145 4.10599 115.298 4.10598C115.149 4.10598 115.001 4.10281 114.856 4.09586C112.948 4.00438 111.55 3.26237 110.198 2.54704L110.283 2.57318C108.457 2.37252 106.646 2.17389 104.93 2.1739C103.389 2.17389 101.936 2.33434 100.629 2.79101C99.5451 3.16963 98.5496 3.75603 97.614 4.42078C96.8571 4.95855 96.145 5.54342 95.4567 6.1088C94.8293 6.62424 94.2199 7.12491 93.6252 7.54743C91.568 9.00912 89.6989 9.52763 87.8649 10.0377L88.0234 9.72487L88.3408 10.564C88.3872 10.6867 88.3253 10.8238 88.2027 10.8702C88.08 10.9166 87.9429 10.8548 87.8965 10.7321L87.8957 10.7324Z" fill="black"/>
<path d="M142.149 36.5931C142.431 38.0692 142.72 39.5743 142.426 41.7167C142.135 43.8428 141.27 46.5951 140.415 49.3186L140.426 49.2404C140.511 52.1414 140.599 55.0771 139.994 57.8911C139.389 60.7047 138.094 63.3858 136.816 66.0361L136.81 66.0466C133.945 71.2986 131.083 76.5445 129.387 79.9198C127.695 83.2887 127.167 84.7886 126.639 86.2912L126.644 86.1511L126.65 86.1717C127.208 88.2654 127.773 90.3829 127.96 91.9372C128.15 93.5143 127.952 94.5147 127.758 95.4915L127.736 95.3353C128.688 97.1553 129.663 99.0169 129.814 101.633C129.963 104.229 129.297 107.562 128.642 110.849L128.644 110.837C127.612 117.862 126.576 124.914 125.251 129.487C124.509 132.047 123.676 133.83 122.96 135.364C122.412 136.537 121.939 137.553 121.617 138.665C121.605 138.705 121.593 138.746 121.582 138.787C120.851 141.418 120.967 144.652 121.087 147.936C121.092 148.068 120.99 148.178 120.859 148.183C120.728 148.187 120.617 148.085 120.613 147.954C120.493 144.691 120.369 141.377 121.124 138.66C121.136 138.617 121.148 138.574 121.161 138.532C121.495 137.379 121.985 136.33 122.53 135.163C123.244 133.632 124.063 131.877 124.795 129.355C126.109 124.82 127.14 117.808 128.174 110.768L128.176 110.756C128.836 107.447 129.485 104.182 129.34 101.66C129.196 99.1569 128.268 97.3768 127.315 95.5555C127.29 95.5075 127.282 95.4524 127.293 95.3993C127.483 94.4353 127.669 93.4947 127.489 91.994C127.307 90.4807 126.753 88.401 126.191 86.2943L126.185 86.2738C126.173 86.2276 126.175 86.1788 126.191 86.1337C126.724 84.6168 127.259 83.0976 128.963 79.7067C130.663 76.3219 133.53 71.0682 136.393 65.8193L136.388 65.8298C137.671 63.1693 138.939 60.5397 139.53 57.7915C140.12 55.0436 140.037 52.1664 139.951 49.2548C139.95 49.2283 139.954 49.2019 139.962 49.1766C140.821 46.4386 141.671 43.7301 141.956 41.6528C142.238 39.592 141.963 38.1518 141.683 36.6825C141.658 36.5537 141.743 36.4293 141.871 36.4047C142 36.38 142.125 36.4642 142.149 36.5931Z" fill="black"/>
<path d="M84.0479 91.3274L86.9575 95.0974L86.7003 95.0153L89.8869 94.0446C89.9494 94.0256 90.017 94.0332 90.0737 94.0655C93.1358 95.8124 96.1833 97.5506 98.8244 98.7289C99.8238 99.1748 100.766 99.5409 101.666 99.8908C102.48 100.207 103.261 100.51 104.013 100.846C104.623 101.118 105.216 101.412 105.795 101.753C107.868 102.976 109.728 104.785 111.563 106.568C111.625 106.628 111.649 106.716 111.627 106.799C110.426 111.289 109.241 115.725 109.307 118.897C109.339 120.445 109.67 121.695 110.064 123.178C110.471 124.709 110.94 126.472 111.187 129.02C111.673 134.018 111.309 142.043 110.946 150.039C110.94 150.17 110.829 150.271 110.698 150.265C110.567 150.259 110.466 150.148 110.472 150.017C110.835 142.005 111.197 134.022 110.715 129.066C110.471 126.557 110.011 124.825 109.605 123.299C109.212 121.82 108.865 120.519 108.832 118.906C108.764 115.651 109.974 111.137 111.168 106.676L111.232 106.908C109.388 105.116 107.569 103.35 105.554 102.162C104.995 101.832 104.419 101.546 103.82 101.279C103.081 100.949 102.31 100.65 101.495 100.333C100.595 99.9834 99.6428 99.6134 98.6313 99.1621C95.9646 97.9723 92.8949 96.2208 89.839 94.4775L90.0258 94.4984L86.8393 95.469C86.7449 95.4978 86.6425 95.4651 86.5822 95.387L83.6725 91.617C83.5924 91.5132 83.6116 91.364 83.7154 91.2839C83.8192 91.2037 83.9684 91.2229 84.0485 91.3268L84.0479 91.3274Z" fill="black"/>
<path d="M110.975 150.145C110.619 150.804 110.241 151.51 109.867 151.912C109.686 152.105 109.461 152.28 109.197 152.287C109.018 152.291 108.854 152.213 108.747 152.165C108.605 152.101 108.509 152.062 108.404 152.065C108.301 152.067 108.139 152.115 107.899 152.373C107.73 152.554 107.53 152.831 107.295 153.245C106.141 155.278 104.303 160.281 104.658 162.883C104.993 165.341 107.35 165.666 109.849 165.686C112.288 165.706 114.582 165.442 116.892 165.176C116.92 165.173 116.949 165.175 116.977 165.182C121.079 166.215 125.154 167.24 128.677 167.477C132.191 167.714 135.157 167.166 137.622 166.18C139.504 165.427 141.079 164.425 141.936 163.505C142.206 163.216 142.396 162.943 142.506 162.697C142.842 161.946 142.453 161.324 141.668 160.974C141.462 160.882 141.232 160.811 140.989 160.768C140.539 160.686 140.043 160.694 139.478 160.703C138.829 160.714 138.101 160.727 137.319 160.585C137.016 160.531 136.704 160.453 136.385 160.343C134.554 159.713 132.489 158.029 130.476 156.391L130.47 156.386L120.823 147.966C120.724 147.88 120.714 147.73 120.8 147.631C120.886 147.532 121.036 147.522 121.135 147.608L130.782 156.028L130.776 156.022C132.816 157.683 134.807 159.298 136.54 159.894C136.834 159.995 137.122 160.067 137.403 160.118C138.133 160.25 138.817 160.239 139.471 160.228C140.024 160.219 140.569 160.209 141.073 160.3C141.352 160.35 141.618 160.431 141.862 160.54C142.781 160.95 143.424 161.806 142.94 162.891C142.802 163.2 142.575 163.516 142.284 163.829C141.362 164.818 139.717 165.853 137.798 166.621C135.266 167.634 132.228 168.193 128.645 167.951C125.07 167.71 120.951 166.672 116.861 165.642L116.946 165.648C114.64 165.914 112.318 166.181 109.845 166.161C107.433 166.142 104.584 165.856 104.187 162.947C103.81 160.182 105.716 155.062 106.882 153.01C107.127 152.577 107.348 152.267 107.551 152.049C107.844 151.735 108.118 151.596 108.392 151.589C108.621 151.584 108.813 151.674 108.941 151.731C109.074 151.791 109.134 151.813 109.185 151.812C109.247 151.81 109.357 151.761 109.519 151.588C109.842 151.242 110.188 150.603 110.557 149.919C110.619 149.803 110.763 149.76 110.879 149.823C110.994 149.885 111.037 150.029 110.975 150.145Z" fill="black"/>
<path d="M84.2991 91.7782L76.0983 102.957C76.0262 103.056 75.8916 103.083 75.7865 103.022L74.1605 102.067L74.5002 101.953C73.029 105.507 71.5453 109.095 69.7704 111.709C67.9892 114.332 65.9195 115.969 63.8784 117.586L63.9204 117.543C62.8386 118.975 61.7434 120.425 59.3098 122.123C56.8909 123.812 53.1456 125.749 49.4228 127.674L49.4476 127.66C42.7673 132.219 36.1053 136.766 31.7407 140.57C27.387 144.365 25.3213 147.419 23.2452 150.489C23.1717 150.598 23.0241 150.626 22.9155 150.553C22.8069 150.479 22.7783 150.332 22.8518 150.223C24.9342 147.144 27.0274 144.048 31.4288 140.212C35.8193 136.385 42.5087 131.82 49.1799 127.267C49.1878 127.262 49.1961 127.257 49.2046 127.253C52.9392 125.321 56.651 123.4 59.0378 121.734C61.4098 120.078 62.469 118.676 63.5415 117.257C63.5536 117.241 63.5677 117.226 63.5835 117.214C65.627 115.595 67.6421 113.998 69.3776 111.442C71.1194 108.877 72.5843 105.341 74.0615 101.771C74.0878 101.708 74.1403 101.659 74.2054 101.637C74.2706 101.615 74.342 101.622 74.4012 101.657L76.0272 102.612L75.7155 102.677L83.9163 91.4974C83.9939 91.3917 84.1425 91.3688 84.2482 91.4464C84.354 91.524 84.3767 91.6725 84.2991 91.7782Z" fill="black"/>
<path d="M119.624 82.5861C120.596 80.8392 121.541 79.1356 121.728 76.7932C121.822 75.6114 121.724 74.2627 121.622 72.8724C121.522 71.4992 121.418 70.0872 121.507 68.8004C121.687 66.2099 122.648 64.1452 123.588 62.1208L123.581 62.1375L126.346 54.7636L126.332 54.8213L127.207 46.7691L127.593 46.979C126.942 47.5089 126.258 48.0679 125.407 48.3965C124.56 48.7234 123.56 48.817 122.603 48.9083L122.766 48.8194L115.063 58.538L115.072 58.5258C113.428 60.8967 111.777 63.2776 110.431 64.9714C109.081 66.6703 108.039 67.6783 107.004 68.6791L107.008 68.3416L117.272 78.7497C117.28 78.7584 117.288 78.7677 117.295 78.7776L120.024 82.5628L119.624 82.5861ZM120.039 82.8172C120 82.8882 119.927 82.9341 119.846 82.9388C119.765 82.9436 119.687 82.9066 119.639 82.8407L116.91 79.0554L116.933 79.0832L106.669 68.6751C106.625 68.6299 106.6 68.5689 106.601 68.5055C106.602 68.4421 106.628 68.3816 106.673 68.3376C107.705 67.3399 108.73 66.3494 110.059 64.6758C111.393 62.9969 113.034 60.6309 114.682 58.2554C114.685 58.2512 114.688 58.2472 114.691 58.2432L122.394 48.5246C122.435 48.4739 122.494 48.4419 122.558 48.4357C123.532 48.3429 124.462 48.2525 125.236 47.9537C126.006 47.6566 126.633 47.1483 127.293 46.6109C127.368 46.5501 127.472 46.5404 127.556 46.5865C127.641 46.6325 127.689 46.725 127.679 46.8208L126.804 54.873C126.802 54.8927 126.797 54.9121 126.79 54.9307L124.026 62.3046C124.024 62.3102 124.022 62.3158 124.019 62.3212C123.076 64.352 122.154 66.3422 121.981 68.8335C121.895 70.0802 121.995 71.4567 122.096 72.8379C122.197 74.2185 122.299 75.606 122.202 76.8312C122.006 79.2883 121.009 81.0742 120.039 82.8172Z" fill="black"/>
<path d="M30.0013 44.5376C30.929 44.5376 31.7859 44.9277 32.3022 45.3685C33.1442 46.0874 33.0916 46.946 33.0535 47.6832C33.0505 47.7412 33.0263 47.7962 32.9855 47.8376C32.3007 48.5332 31.6854 49.1667 31.4992 49.7262C31.3249 50.2501 31.528 50.735 31.7868 51.3222C31.8195 51.3963 31.8122 51.4819 31.7674 51.5494C31.2628 52.3094 30.8579 52.945 30.9196 53.4296C30.9793 53.8991 31.4956 54.299 32.1634 54.7893C32.2144 54.8268 32.2483 54.8829 32.2577 54.9454C32.2672 55.0079 32.2513 55.0716 32.2136 55.1224C31.6727 55.8512 31.2695 56.4286 31.3695 56.8728C31.4718 57.3267 32.113 57.7405 32.9264 58.2382C32.9953 58.2803 33.038 58.3546 33.0399 58.4353C33.0417 58.5161 33.0024 58.5922 32.9356 58.6375C32.3431 59.0386 32.0624 59.2749 32.1687 59.58C32.3184 60.0097 33.1093 60.6352 34.0244 61.3431C34.097 61.3992 34.1308 61.4922 34.1111 61.5818C34.0915 61.6714 34.022 61.7417 33.9326 61.7624C33.4006 61.8853 32.8531 62.0122 32.2802 62.0743C32.0509 62.0991 31.8171 62.1137 31.5776 62.1137C31.1744 62.1137 30.755 62.0725 30.3131 61.9697C28.9683 61.6567 27.4324 60.773 25.9412 59.9175C25.8552 59.8682 25.8089 59.7706 25.8251 59.6727C26.1484 57.7194 26.462 55.8128 26.288 54.2569C26.1154 52.714 25.4606 51.5044 24.7802 50.2526C24.742 50.1824 24.7417 50.0978 24.7794 50.0273C25.8825 47.962 27.0344 45.7873 28.4298 44.9621C28.8281 44.7265 29.2441 44.6004 29.6531 44.5561C29.7698 44.5435 29.8862 44.5376 30.0013 44.5376ZM127.441 46.5563C127.479 46.5563 127.518 46.5658 127.554 46.5851C127.639 46.6312 127.687 46.7237 127.677 46.8195L126.802 54.8716C126.8 54.8914 126.795 54.9108 126.788 54.9294L124.024 62.3033C124.021 62.3089 124.019 62.3144 124.017 62.3199C123.074 64.3507 122.152 66.3409 121.979 68.8322C121.892 70.0788 121.993 71.4554 122.094 72.8366C122.195 74.2172 122.297 75.6047 122.199 76.8298C122.004 79.287 121.007 81.073 120.037 82.816C119.998 82.887 119.925 82.9329 119.844 82.9376C119.839 82.9379 119.834 82.938 119.83 82.938C119.754 82.938 119.682 82.9016 119.637 82.8394L116.918 79.069L106.667 68.6738C106.623 68.6287 106.598 68.5676 106.599 68.5042C106.599 68.4408 106.626 68.3804 106.671 68.3363C107.703 67.3386 108.727 66.3482 110.057 64.6745C111.391 62.9957 113.032 60.6297 114.68 58.2541C114.683 58.25 114.686 58.2459 114.689 58.2419L122.392 48.5233C122.432 48.4727 122.491 48.4406 122.556 48.4345C123.529 48.3416 124.46 48.2513 125.234 47.9524C126.003 47.6554 126.631 47.1471 127.291 46.6097C127.334 46.5744 127.387 46.5563 127.441 46.5563ZM146.858 0.472709C144.044 0.472709 141.12 1.6422 138.14 2.83778C138.111 2.84915 138.081 2.85484 138.051 2.85484C138.022 2.85484 137.994 2.84961 137.966 2.83913C137.543 2.67695 137.17 2.53713 136.794 2.53713C136.623 2.53713 136.452 2.56656 136.277 2.63914C135.69 2.88175 135.042 3.59747 134.337 4.38592C134.295 4.43206 134.238 4.46024 134.176 4.46447L127.296 4.93462C127.291 4.93499 127.286 4.93517 127.28 4.93517C127.256 4.93517 127.232 4.93154 127.209 4.9244C125.246 4.31278 123.32 3.71409 121.208 3.6792C121.142 3.67811 121.072 3.67755 121.005 3.67755H121.005C120.027 3.67755 119.011 3.7889 118.01 3.89883C117.072 4.00182 116.145 4.10398 115.298 4.10398C115.149 4.10398 115.002 4.10085 114.858 4.09398L114.855 4.09385C112.966 4.00328 111.577 3.27506 110.237 2.56636H110.239C108.427 2.36735 106.632 2.17185 104.929 2.17185C103.389 2.17185 101.935 2.33232 100.628 2.78898C99.5447 3.16759 98.5492 3.75398 97.6135 4.41873C96.8566 4.95649 96.1445 5.54137 95.4563 6.10675C94.8288 6.62219 94.2195 7.12285 93.6248 7.54538C91.6607 8.94084 89.8682 9.47666 88.1141 9.96619H88.1151L88.2353 10.2842H88.2348C88.3028 10.2842 88.3703 10.3133 88.4173 10.3696C88.5013 10.4703 88.4878 10.62 88.3871 10.7041C88.368 10.72 88.349 10.7359 88.3299 10.7518H88.3309C88.3052 10.8035 88.2606 10.8461 88.2023 10.8682C88.1953 10.8708 88.1882 10.8731 88.1811 10.8751H88.1822C82.6359 15.5034 77.1062 20.1143 73.7097 22.612C70.263 25.1468 68.9933 25.5202 67.7219 25.886H67.7227C65.0707 26.8647 62.4334 27.8398 58.4078 31.1744C54.3606 34.5268 48.9182 40.2568 43.4595 46.0045C43.4144 46.052 43.352 46.0785 43.2873 46.0785C43.2783 46.0785 43.2693 46.078 43.2603 46.077C41.9306 45.9244 40.6233 45.775 39.5935 45.775C39.4638 45.775 39.3385 45.7774 39.2181 45.7824C38.1629 45.8266 37.4852 46.076 36.7844 46.3361L36.7752 46.3395C36.748 46.3496 36.7201 46.3544 36.6927 46.3544C36.5987 46.3544 36.5102 46.2981 36.4728 46.2066H36.4733C36.4593 46.1942 36.4464 46.1798 36.4353 46.1636C34.6421 43.5647 32.9417 41.1344 30.197 41.1006C30.1775 41.1004 30.158 41.1003 30.1384 41.1003C27.3413 41.1003 23.4334 43.5165 19.4212 46.0107L19.4089 46.0183C19.3712 46.0418 19.3277 46.0541 19.2836 46.0541C19.2768 46.0541 19.2701 46.0538 19.2633 46.0532C17.8223 45.9296 16.4128 45.8121 15.125 45.8121C12.9501 45.8121 11.1224 46.1474 10.0771 47.3553C8.40049 49.2926 8.64896 53.5669 9.30472 57.5455C9.56254 59.1096 9.87638 60.5923 10.3052 61.8692C10.9588 63.8156 11.8593 65.2223 13.1706 65.7568C13.6366 65.9468 14.1606 66.0312 14.732 66.0312C16.8903 66.0312 19.7253 64.8274 22.6672 63.5635L22.6819 63.5572C22.7124 63.544 22.7442 63.5378 22.7755 63.5378C22.8675 63.5378 22.9551 63.5917 22.9938 63.6817C22.9992 63.6942 23.0034 63.707 23.0065 63.7198C26.288 64.5945 29.5008 65.4337 31.9253 65.4337C32.2091 65.4337 32.4821 65.4222 32.7432 65.3979C35.2028 65.1692 36.6084 63.7987 38.0511 62.3462H38.0516C38.0477 62.3372 38.0443 62.3279 38.0415 62.3182C38.0048 62.1923 38.0771 62.0604 38.203 62.0237L41.6169 61.0277L45.1813 54.1752C45.1977 54.1437 45.2209 54.1163 45.2492 54.095L56.2945 45.785C56.3127 45.7712 56.3328 45.7602 56.3541 45.7523C60.6371 44.1521 64.8956 42.5603 68.4311 40.512C71.9636 38.4656 74.7808 35.9595 77.6169 33.4358C77.6606 33.397 77.7168 33.3758 77.7748 33.3758C77.7804 33.3758 77.7861 33.376 77.7918 33.3764L79.7403 33.5161C79.7977 33.5202 79.8488 33.5443 79.8873 33.5812C79.8905 33.5749 79.8938 33.5685 79.897 33.5622C79.9391 33.4802 80.0223 33.433 80.1085 33.433C80.145 33.433 80.182 33.4414 80.2167 33.4592C80.3334 33.519 80.3795 33.6622 80.3196 33.7789C79.4945 35.3889 78.6772 36.9839 78.1754 38.2473C77.6768 39.5024 77.4895 40.4308 77.2994 41.3746C77.2875 41.4335 77.2537 41.4858 77.2048 41.5208L69.8359 46.7953H69.8368C69.8428 46.8052 69.8481 46.8156 69.8528 46.8266C69.9037 46.9474 69.8471 47.0868 69.7263 47.1378C66.9226 48.3214 64.1216 49.488 60.4738 56.654C56.8178 63.8359 52.3341 76.9996 47.8387 90.2114H47.8393L50.7427 92.0048C50.8086 92.0455 50.8505 92.1157 50.855 92.193C51.1808 97.7422 51.5195 103.396 50.0491 106.678C49.2016 108.569 47.7638 109.664 46.0715 110.6C45.4513 110.943 44.7926 111.267 44.1157 111.6C43.3832 111.96 42.6271 112.331 41.8605 112.755C38.4472 114.643 34.8036 117.575 32.1594 120.723C31.6094 121.378 31.1022 122.043 30.6177 122.722C29.7415 123.95 28.9416 125.221 28.0975 126.562C27.1665 128.041 26.1827 129.604 24.9921 131.273C22.1286 135.285 18.0704 139.902 14.0235 144.508C14.0108 144.522 13.9963 144.535 13.9805 144.546L9.00407 147.997C8.96323 148.025 8.91596 148.039 8.86883 148.039C8.81742 148.039 8.76618 148.022 8.72366 147.99C8.51524 147.829 8.33048 147.687 8.14119 147.595C8.0211 147.537 7.894 147.494 7.75301 147.494C7.49139 147.494 7.18192 147.641 6.78057 148.105C5.82303 149.212 4.51328 151.942 3.17774 154.731C3.16335 154.761 3.14279 154.787 3.11741 154.809C1.3043 156.351 -0.191049 157.676 0.785727 159.308C1.8415 161.072 5.68023 163.227 9.64913 165.44L9.68629 165.461C9.71761 165.479 9.74459 165.503 9.76517 165.532C11.5879 168.136 13.3692 170.672 16.0303 171.969C16.0898 171.998 16.1549 172.029 16.2153 172.057L16.2164 172.057L16.2176 172.058C18.4369 173.075 21.2793 173.247 24.2875 173.247C25.0339 173.247 25.7904 173.236 26.5501 173.225C28.3736 172.928 30.1234 172.635 31.419 171.737C32.7036 170.846 33.5023 169.404 32.2629 167.569C31.6912 166.723 30.6903 165.791 29.5553 164.737C28.1368 163.42 26.5279 161.927 25.4311 160.241C23.5549 157.357 23.1918 153.931 22.9019 150.544C22.8011 150.468 22.7767 150.326 22.848 150.22C22.8557 150.209 22.8634 150.198 22.8711 150.186C22.8669 150.137 22.8631 150.087 22.8589 150.038C22.8478 149.907 22.9448 149.792 23.0755 149.781C23.0823 149.78 23.0891 149.78 23.0958 149.78C23.1119 149.78 23.1276 149.782 23.1429 149.785C25.1329 146.848 27.2312 143.865 31.4248 140.21C35.8153 136.383 42.5047 131.818 49.1758 127.265C49.1838 127.259 49.192 127.254 49.2006 127.25C52.9352 125.318 56.647 123.398 59.0338 121.731C61.4058 120.076 62.465 118.674 63.5374 117.254C63.5496 117.238 63.5637 117.223 63.5795 117.211C65.623 115.593 67.6381 113.996 69.3736 111.44C71.1153 108.875 72.5803 105.338 74.0575 101.768C74.0838 101.705 74.1363 101.656 74.2014 101.634C74.226 101.626 74.2515 101.622 74.2769 101.622C74.3187 101.622 74.3603 101.633 74.3972 101.654L75.8383 102.501L83.7475 91.7189L83.6677 91.6156C83.5876 91.5117 83.6068 91.3626 83.7106 91.2824C83.7538 91.2491 83.8048 91.2329 83.8555 91.2329C83.9266 91.2329 83.9969 91.2647 84.0437 91.3253L84.0994 91.3975C84.1008 91.3975 84.1023 91.3975 84.1037 91.3975C84.1524 91.3975 84.2016 91.4125 84.244 91.4435C84.3263 91.5039 84.3584 91.6073 84.332 91.7001H84.3329L86.8531 94.9654L89.8827 94.0425C89.9053 94.0356 89.9286 94.0322 89.9518 94.0322C89.9927 94.0322 90.0333 94.0428 90.0695 94.0634C93.1316 95.8102 96.1791 97.5485 98.8202 98.7268C99.8195 99.1727 100.762 99.5387 101.662 99.8887C102.476 100.205 103.257 100.508 104.008 100.844C104.619 101.116 105.212 101.41 105.791 101.751C107.864 102.974 109.724 104.783 111.559 106.566C111.62 106.626 111.645 106.714 111.623 106.797C110.421 111.287 109.237 115.723 109.303 118.894C109.335 120.443 109.666 121.693 110.06 123.176C110.467 124.707 110.935 126.469 111.183 129.018C111.666 133.984 111.309 141.936 110.949 149.88H110.95C111.007 149.952 111.02 150.054 110.973 150.14C110.618 150.8 110.239 151.506 109.865 151.907C109.684 152.101 109.459 152.276 109.195 152.282C109.19 152.282 109.185 152.283 109.18 152.283C109.007 152.283 108.849 152.207 108.745 152.16C108.608 152.099 108.513 152.06 108.412 152.06C108.409 152.06 108.406 152.06 108.402 152.06C108.299 152.063 108.137 152.11 107.897 152.368C107.728 152.55 107.529 152.826 107.293 153.24C106.139 155.273 104.301 160.276 104.656 162.878C104.991 165.336 107.348 165.662 109.847 165.682C109.934 165.683 110.02 165.683 110.106 165.683C112.448 165.683 114.662 165.428 116.89 165.171C116.899 165.17 116.908 165.17 116.917 165.17C116.937 165.17 116.956 165.172 116.975 165.177C121.078 166.21 125.152 167.235 128.675 167.473C129.224 167.51 129.76 167.527 130.283 167.527C133.104 167.527 135.54 167.007 137.62 166.175C139.502 165.422 141.077 164.42 141.935 163.5C142.204 163.212 142.395 162.939 142.505 162.692C142.84 161.941 142.452 161.319 141.666 160.969C141.46 160.877 141.231 160.807 140.987 160.763C140.675 160.707 140.341 160.693 139.978 160.693C139.817 160.693 139.65 160.696 139.477 160.699C139.297 160.702 139.112 160.705 138.921 160.705C138.421 160.705 137.883 160.683 137.317 160.581C137.014 160.526 136.703 160.449 136.383 160.339C134.552 159.709 132.488 158.025 130.474 156.386L130.468 156.381L121.006 148.123H121.004C120.965 148.157 120.914 148.179 120.857 148.181C120.854 148.181 120.851 148.181 120.848 148.181C120.721 148.181 120.616 148.081 120.611 147.952C120.492 144.69 120.368 141.375 121.123 138.658C121.135 138.616 121.147 138.573 121.159 138.531C121.493 137.378 121.983 136.329 122.528 135.162C123.243 133.631 124.062 131.876 124.793 129.353C126.107 124.819 127.138 117.806 128.173 110.767L128.175 110.755C128.834 107.445 129.483 104.181 129.338 101.659C129.194 99.1554 128.266 97.3753 127.314 95.554C127.289 95.5061 127.281 95.451 127.291 95.3978C127.482 94.4338 127.668 93.4932 127.487 91.9925C127.305 90.4792 126.752 88.3995 126.189 86.2928L126.184 86.2723C126.171 86.2261 126.173 86.1773 126.189 86.1322C126.723 84.6153 127.258 83.0961 128.961 79.7053C130.661 76.3227 133.524 71.0736 136.386 65.8282C137.67 63.1677 138.938 60.5381 139.528 57.7899C140.119 55.042 140.035 52.1648 139.95 49.2532C139.949 49.2267 139.952 49.2003 139.96 49.175C140.82 46.437 141.67 43.7285 141.954 41.6512C142.237 39.5904 141.962 38.1502 141.681 36.6809C141.666 36.6015 141.692 36.5238 141.745 36.4701H141.746C141.756 36.4407 141.771 36.4128 141.793 36.3879C142.787 35.2366 143.746 34.1227 144.237 32.4343C144.732 30.7288 144.754 28.4276 144.775 26.0772C144.775 26.0015 144.812 25.9307 144.873 25.8865C145.723 25.2747 146.578 24.6596 148.285 23.6951C148.426 23.6151 148.557 23.5419 148.708 23.4573C150.387 22.5188 152.659 21.2466 154.539 18.989C156.589 16.5275 158.151 12.9222 157.262 9.29076C156.367 5.63644 152.991 1.92335 149.415 0.838114C148.576 0.58353 147.723 0.472709 146.858 0.472709Z" fill="black"/>
</svg>
