<svg width="140" height="339" viewBox="0 0 140 339" fill="none" xmlns="http://www.w3.org/2000/svg">
<path d="M28.9341 110.369L33.1415 116.551L36.7946 125.152L39.1554 129.173L40.2863 134.658L40.0236 138.386C38.4393 141.139 37.5766 144.107 37.4357 147.289L37.5162 152.869L36.7567 157.436L36.8615 162.104L35.824 165.703L35.405 166.508L26.4344 167.984L24.3836 164.883L22.5008 159.6L20.1833 148.634L19.9135 144.913L20.3789 140.266L20.3042 128.115C20.0884 126.251 19.556 124.474 18.707 122.782L18.6671 121.939L20.49 118.675L24.0958 115.77L27.3235 112.39L28.3025 110.826M67.5484 0L62.0296 0.995817L57.877 3.13419L56.4661 4.36042L53.5697 8.02645C53.2591 9.37676 52.8318 10.5429 52.2878 11.5247L51.8359 17.1139L51.9523 21.7593L50.222 23.8659C50.209 24.489 50.1981 25.1119 50.1891 25.7345L52.3052 31.9136C52.8403 33.2277 53.8368 33.8105 55.2946 33.662L56.1609 42.0361C56.2389 42.5634 56.1569 43.1341 55.9151 43.7483L49.8776 49.5873L39.5778 56.0267L35.6666 60.0386L23.4264 64.6917C22.29 65.3882 21.3026 66.1895 20.464 67.0958L18.5432 71.2329L17.5002 76.7426L16.4448 79.3405L12.9046 83.6398C12.1603 84.6703 11.5288 85.7471 11.0102 86.8701L9.16179 93.1232L8.59381 96.8008L2.38485 112.434L1.09569 118.846L0 122.405L0.0424532 126.141L1.90091 138.147L6.05729 150.555L9.97945 159.031C10.6814 161.105 11.2397 163.853 11.6543 167.276L8.05258 169.997C7.11569 170.88 6.41227 171.903 5.94233 173.067L3.53374 180.146L2.99038 182.896C2.86866 183.532 2.81458 184.156 2.82813 184.769L3.68339 188.291C4.80179 190.549 6.22003 192.606 7.9381 194.462C8.60637 195.229 9.9719 195.985 12.0347 196.732L17.5728 197.71L20.3294 197.502L23.4923 195.525L26.8769 192.302L30.5323 196.144L30.2983 199.76L29.75 202.494L28.9408 218.363L29.9263 221.956L28.6839 228.352L27.7692 236.679L26.7692 240.27L24.0943 245.193L21.5593 251.223C21.114 252.734 20.8601 254.896 20.7977 257.709L22.1995 293.199L22.9727 300.636L21.3943 313.621L21.6342 322.029L20.701 324.666L20.9269 327.461L19.7976 330.019C20.3376 331.179 20.5258 332.396 20.3625 333.671L21.8768 336.014L24.205 337.527C25.4808 337.662 26.6473 338.044 27.7045 338.672C32.3714 339.143 36.4119 339.107 39.826 338.564C41.0283 338.145 41.7977 337.233 42.1343 335.827L42.2208 333.013C41.7649 332.523 41.4173 332.006 41.1781 331.464C41.1014 330.258 40.7901 329.072 40.2443 327.908L38.7829 325.466L37.9788 320.864L35.7253 312.761L35.3357 297.816L36.5057 287.605L40.8467 271.353L43.8268 263.518L44.2046 249.502C44.1606 248.877 44.2579 248.263 44.4965 247.66L52.0788 232.639C52.4532 232.122 52.8815 231.685 53.3635 231.329C54.9078 230.934 55.7387 230.574 55.8563 230.249L57.3376 227.868L57.7118 227.031L58.6591 220.558C59.7797 217.637 61.1993 214.869 62.9177 212.254L64.4839 206.885L66.0543 204.594L66.4362 204.68L72.3817 233.038L72.4828 235.836L72.4114 236.756L68.6368 247.318L67.0199 254.602L67.1446 263.01L68.9546 269.278L69.2546 272.992L68.6027 285.124L66.2406 303.668L65.9365 304.51C64.7362 305.55 64.1676 306.276 64.2306 306.689L61.8851 317.655L61.5205 318.511C61.1393 318.995 60.7222 319.454 60.2692 319.887C60.1258 320.447 60.0905 321.049 60.1633 321.693L60.3855 322.584C61.4879 324.157 62.9533 325.265 64.7819 325.911L69.3967 326.6L77.8038 326.879C82.1227 327.675 86.2706 328.966 90.2477 330.75L96.7093 331.586L103.251 331.456L105.943 330.974L107.838 328.995L108.03 326.239C107.784 325.651 107.51 325.084 107.205 324.538L105.634 322.228L102.708 319.916L99.9932 319.302L96.5554 317.833L94.7886 315.804C93.8343 315.574 92.5543 314.714 90.9483 313.223L88.6021 308.18C88.9212 307.165 88.6102 305.674 87.6692 303.708C87.3576 303.09 86.9136 302.644 86.3373 302.37L82.6556 301.865C82.3791 301.389 82.2562 300.775 82.2869 300.024C82.2618 299.38 82.2746 298.76 82.3253 298.163L84.0988 286.144L90.4428 262.686L92.0157 252.525L92.2352 247.865L95.4893 234.228L96.3833 231.609L96.5919 226.959L97.2692 226.569L104.745 226.438C105.482 226.495 105.966 226.212 106.198 225.589L105.749 171.422C105.584 170.842 105.394 170.256 105.179 169.664L104.83 165.942L103.291 162.553L99.9579 149.902L97.9065 146.776L97.4054 144.02L94.4157 139.29L93.5448 136.625L95.1152 127.427L94.2613 119.045L94.32 113.533L95.5105 109.998L97.0434 107.65L99.315 102.599L101.322 106.818L103.441 113.005L105.537 117.156C105.585 117.777 105.637 118.398 105.693 119.019L107.786 128.128L108.975 131.66L109.362 135.374L111.059 140.717L115.912 150.828L121.191 165.752C121.276 166.411 121.023 166.923 120.432 167.289L113.892 172.541L112.159 175.854L110.427 181.185L110.331 182.145C110.138 184.048 110.454 185.858 111.28 187.576C111.616 188.072 111.913 188.614 112.169 189.202L115.047 192.699L120.056 195.199L120.909 195.559L124.646 195.647C124.882 195.309 125.787 195.193 127.361 195.3C134.375 194.263 138.573 190.271 139.953 183.322C140.032 182.106 140.011 180.866 139.889 179.602C139.866 178.95 139.742 178.331 139.519 177.742L136.872 172.798C134.972 170.713 133.27 169.386 131.765 168.816L129.507 160.849L129.222 149.661L129.569 144.976L129.149 137.51L127.102 123.642L125.74 119.206C123.416 116.258 121.446 113.089 119.83 109.697L119.521 104.144L118.881 100.466C118.036 96.1468 116.558 92.0591 114.449 88.2032L114.14 81.6759L111.308 70.8316C110.098 68.2773 108.871 66.4928 107.628 65.4779L104.361 63.6934L98.2512 61.3531L94.6298 60.426L90.4713 56.7119L86.5163 54.2296L81.3869 50.1699C80.8843 49.8246 80.3335 49.5425 79.7347 49.3235C79.1145 47.2288 79.2547 44.4997 80.1552 41.1362C81.4328 38.9595 82.222 36.6125 82.5228 34.0952C82.9948 33.8236 83.4611 33.4761 83.9217 33.0527L84.3128 29.3345L85.4196 26.7644L85.8218 24.9388C85.9297 24.3476 85.9048 23.7281 85.7472 23.0801L84.1116 20.8209L83.8593 13.3477L81.9799 8.0712L80.1531 4.81306C78.2859 3.11317 76.159 1.84676 73.7723 1.01383L70.1345 0.145246C69.4551 0.265609 68.8353 0.274592 68.275 0.172188L67.5484 0Z" fill="black"/>
</svg>
