<svg width="159" height="202" viewBox="0 0 159 202" fill="none" xmlns="http://www.w3.org/2000/svg">
<path d="M122.851 0.259527C123.642 -0.372109 120.819 0.327099 119.825 0.491179C118.977 0.631212 118.154 0.929313 117.371 1.28383C116.261 1.7865 115.159 2.36658 114.232 3.15672C113.362 3.89836 112.675 4.84189 112.031 5.78606C111.437 6.65652 110.878 7.57062 110.516 8.55955C110.351 9.00847 110.332 9.4979 110.227 9.9644C110.138 10.3623 110.516 11.189 109.938 11.153C109.361 11.117 105.428 12.5579 105.428 12.5579L101.35 14.7912L98.1388 18.9334C98.1388 18.9334 94.5665 22.2111 94.0974 22.2111C93.6283 22.2111 85.1846 26.5333 85.1846 26.5333L77.8595 31.6122C77.8595 31.6122 72.3026 36.0064 72.3026 36.1865C72.3026 36.3666 71.5447 37.9874 71.4004 38.0594C71.274 38.1225 61.0951 41.9728 58.5735 42.9264C58.2166 43.0614 58.1959 43.058 58.0131 43.1384C55.7685 44.1257 51.4458 46.452 51.4458 46.452H49.9303C49.9303 46.452 46.7843 48.0253 45.2397 48.8654C43.7776 49.6606 42.2541 50.3707 40.9094 51.3509C39.8575 52.1177 38.8409 52.9684 38.0228 53.9802C37.0615 55.1692 36.1305 56.4722 35.7136 57.9423C35.1859 59.8029 34.91 61.5557 34.9018 63.4893C34.8957 64.9543 35.3047 66.7098 35.6414 68.1357C36.0759 69.9756 36.9819 71.7212 38.0951 73.2505C38.638 73.9965 40.1024 75.1577 40.1024 75.1577C40.1024 75.1577 40.1658 75.5242 40.1963 75.701C40.0714 75.6969 39.9464 75.6909 39.8218 75.6895C38.5472 75.6747 37.2828 75.9209 36.0108 76.0027C34.6293 76.0915 31.9827 75.6655 31.8621 75.6655C31.7415 75.6655 29.831 75.3397 28.8232 75.136C27.6668 74.9022 26.5396 74.5256 25.3742 74.3413C24.2931 74.1704 23.5415 74.1287 22.7406 74.1247C22.26 74.1222 21.7616 74.1337 21.1634 74.1396C20.6376 74.1453 18.7772 74.2631 18.1379 74.558C17.4996 74.8524 16.8862 75.2131 16.3291 75.6414C15.9984 75.8957 15.7174 76.2097 15.4321 76.514C14.9113 77.0695 14.2964 77.5736 13.9482 78.2502C13.635 78.8587 13.3782 79.5622 13.4536 80.2421C13.4956 80.6205 13.7162 80.9753 13.9651 81.2637C15.5513 83.0529 18.3806 84.2397 20.8896 84.8389C21.9338 85.0632 24.078 85.156 24.078 85.156C24.0231 85.2581 23.9948 85.3632 23.994 85.4688C23.9939 86.1458 25.0932 86.6944 26.4496 86.6945C26.9624 86.6941 27.4621 86.6136 27.8787 86.4644L28.0796 88.7773C28.0796 90.2219 30.1635 91.515 32.0471 91.515H42.4827C42.4827 91.515 42.8132 91.5248 42.9555 91.5977C43.1448 91.6947 43.3033 91.85 43.4335 92.0224C43.5784 92.7572 43.7312 93.4897 43.9217 94.212V95.258H43.512V94.8306H32.9955V94.4933H7.76665V94.8306H0V100.801H7.76665V101.138H16.2934V102.21L17.1735 103.089V103.426L16.2089 104.052C16.2089 104.052 15.4976 104.57 15.2926 104.943C14.874 105.705 14.8746 106.633 14.7617 107.495C14.7054 107.925 14.5398 108.387 14.6895 108.795C14.8344 109.189 15.2245 109.452 15.5574 109.709C15.9786 110.035 16.458 110.292 16.9561 110.48C17.2335 110.585 17.53 110.641 17.8247 110.673C17.9285 110.684 18.0336 110.673 18.1381 110.673C18.2426 110.673 18.3476 110.684 18.4514 110.673C18.7461 110.641 19.0424 110.585 19.3197 110.48C19.8179 110.292 20.2975 110.035 20.7188 109.709C21.0518 109.452 21.4426 109.189 21.5875 108.795C21.7371 108.387 21.5709 107.925 21.5145 107.495C21.4015 106.633 21.4025 105.705 20.984 104.943C20.779 104.57 20.0676 104.052 20.0676 104.052L19.103 103.426V103.089L19.9831 102.21V101.138H24.811L31.0073 117.338L39.0719 139.028L22.5576 173.814C20.7969 174.6 19.662 176.345 19.6612 178.27C19.6634 178.701 19.7221 179.13 19.8368 179.546L13.7242 191.216C11.5127 191.852 9.97614 193.976 9.97371 196.401C9.97361 199.372 12.2492 201.781 15.0562 201.781C17.8633 201.781 20.1388 199.372 20.1387 196.401C20.1366 195.607 19.9685 194.824 19.6466 194.107L22.2948 189.451H133.442L134.268 193.81C133.825 194.528 133.589 195.354 133.588 196.197C133.588 198.717 135.635 200.76 138.159 200.76C140.684 200.76 142.73 198.717 142.73 196.197C142.729 194.989 142.248 193.831 141.393 192.977L138.635 178.417C138.89 177.843 139.024 177.211 139.024 176.57C139.024 174.27 137.35 172.405 135.286 172.405C135.159 172.405 135.033 172.412 134.907 172.427L134.844 172.234C139.302 167.281 141.763 160.945 141.775 154.385C141.761 141.781 132.805 130.825 120.102 127.87L114.22 110.167L112.461 104.875L113.821 104.349L114.324 103.212L114.639 103.091L115.572 103.763C115.572 103.763 116.313 104.238 116.735 104.294C117.598 104.409 118.466 104.073 119.311 103.867C119.733 103.764 120.225 103.751 120.552 103.465C120.868 103.188 120.973 102.729 121.093 102.326C121.245 101.816 121.312 101.278 121.308 100.746C121.305 100.45 121.25 100.154 121.174 99.868C121.148 99.7673 121.099 99.6734 121.061 99.5761C121.023 99.4788 120.996 99.3768 120.947 99.2842C120.811 99.0215 120.652 98.7662 120.454 98.5459C120.099 98.15 119.685 97.7964 119.229 97.5216C118.869 97.3045 118.482 97.0357 118.061 97.0433C117.626 97.0514 117.254 97.3724 116.873 97.5803C116.109 97.9964 115.241 98.3308 114.68 98.9954C114.405 99.321 114.179 100.17 114.179 100.17L113.942 101.295L113.627 101.416L112.488 100.914L111.298 101.374L110.024 97.5397L109.622 97.6681L105.27 84.5336L105.823 84.3114C105.823 84.3114 105.546 83.1323 105.413 82.5413C105.296 82.0199 105.052 81.5088 105.073 80.9749C105.091 80.5013 105.198 79.9932 105.482 79.613C105.815 79.1661 106.372 78.9228 106.88 78.6935C107.353 78.4803 107.889 78.1224 108.382 78.2849C109.15 78.5386 109.141 79.8653 109.882 80.1917C110.591 80.5042 112.202 80.0211 112.202 80.0211C112.202 80.0211 118.203 78.3279 121.127 77.2551C125.552 75.6318 128.182 74.9694 132.497 73.0751C134.919 72.0119 139.132 69.8613 141.365 68.4449C143.359 67.1804 145.36 65.8663 147.301 64.4694C147.963 64.5143 148.125 64.6514 148.169 64.6514C148.314 64.6514 148.983 64.8125 149.324 64.6333C149.48 64.551 149.565 64.3651 149.631 64.2011C149.662 64.1222 149.666 63.949 149.666 63.949C149.666 63.949 150.696 64.0149 151.097 63.7485C151.319 63.6007 151.505 63.1243 151.505 63.0606C151.505 62.9969 151.542 62.8017 151.62 62.7041C151.749 62.5418 152.105 62.4112 152.156 62.3857C152.207 62.3603 152.538 62.2329 152.589 62.1565C152.64 62.0801 152.653 62.1181 152.729 61.9398C152.806 61.7615 152.845 61.698 152.857 61.6471C152.87 61.5961 152.918 61.4655 152.959 61.3796C153.053 61.1841 153.164 60.9212 153.291 60.8194C153.419 60.7175 153.566 60.6185 153.737 60.5519C153.947 60.4704 154.055 60.5594 154.1 60.2154C154.134 59.9499 154.129 59.9706 154.12 59.8006C154.109 59.5894 153.991 59.3875 154.005 59.1765C154.015 59.0447 154.065 58.9152 154.13 58.8003C155.15 57.0042 156.973 55.7883 158.182 54.1098C158.475 53.7025 158.813 52.748 158.745 52.714C158.676 52.6799 158.452 51.6684 158.097 51.2839C157.89 51.0599 157.592 50.9107 157.295 50.8415C156.829 50.7332 156.331 50.8123 155.862 50.9093C155.642 50.9549 155.231 51.1476 155.231 51.1476C155.231 51.1476 155.442 50.0013 155.283 49.4623C155.144 48.9928 154.871 48.4996 154.447 48.2536C154.048 48.0217 153.522 48.0601 153.065 48.1343C152.558 48.2168 152.09 48.4817 151.649 48.7473C151.025 49.124 150.492 49.6324 149.939 50.1096C149.939 50.1096 145.763 50.1939 143.695 50.4598C142.508 50.6126 141.359 51.0002 140.174 51.1729C138.484 51.4192 136.757 51.3565 135.071 51.6315C133.552 51.8793 132.11 52.5356 130.581 52.7011C128.737 52.9005 126.87 52.7057 125.018 52.599C122.048 52.4278 116.135 51.7362 116.135 51.7362C116.077 51.6448 116.019 51.5529 115.964 51.4593C114.736 49.3704 114.072 46.5222 114.098 44.4692C114.114 43.2724 114.412 42.0582 114.412 41.626C114.412 41.1938 114.338 40.0255 114.16 39.2488C113.977 38.4528 113.329 36.9433 113.329 36.9433L112.319 34.8904C112.716 34.7103 116.774 32.3322 118.923 30.9283C119.392 30.6218 120.149 30.0636 120.294 29.9556C120.438 29.8475 121.593 29.2713 121.593 29.2713C122.297 29.4494 123.289 29.6314 123.433 29.7035C123.577 29.7755 124.227 30.2076 124.84 30.5678C125.454 30.928 126.031 31.0721 126.356 31.0721C126.681 31.0721 127.33 30.9281 127.583 30.712C127.835 30.4959 127.98 30.2439 128.449 29.9197C128.918 29.5955 129.062 29.6314 129.315 29.2713C129.567 28.9111 129.423 28.6589 129.676 28.5149C129.928 28.3708 130.036 28.2987 130.253 28.1906C130.469 28.0826 130.469 28.1186 130.614 27.9385C130.758 27.7584 131.985 25.7772 131.985 25.7772L132.31 24.3727C132.31 24.3727 134.655 23.6523 134.944 23.2921C135.232 22.9319 135.052 22.2476 135.052 22.1035C135.052 21.9594 134.547 21.0952 134.403 20.5544C134.155 19.6307 133.944 18.6599 134.041 17.7088C134.091 17.2291 134.373 16.8024 134.511 16.3402C134.748 15.5447 135.007 14.7484 135.124 13.9268C135.324 12.5234 135.406 11.0875 135.268 9.67666C135.201 8.98966 135.095 8.28361 134.799 7.65961C134.268 6.53718 133.408 5.58155 132.526 4.70607C131.412 3.6003 130.157 2.60337 128.773 1.8605C127.494 1.17328 126.094 0.652739 124.66 0.419769C124.063 0.322872 123.459 0.271656 122.851 0.259527ZM109.668 13.9807C109.668 13.9807 110.372 14.1969 110.444 14.2329C110.516 14.2689 110.696 14.8455 110.75 14.9716C110.805 15.0976 110.823 15.782 110.804 15.9801C110.786 16.1783 110.227 16.5565 110.227 16.5565C110.227 16.5565 109.56 17.655 109.56 17.7991C109.56 17.7991 109.379 18.015 109.325 18.0871C109.271 18.1591 109.217 18.4292 109.091 18.7714C108.965 19.1136 109.145 19.1676 108.982 19.2757C108.82 19.3837 108.694 19.3298 108.405 19.2938C108.116 19.2578 107.918 19.0416 107.918 19.0416C107.918 19.0416 106.998 17.9791 106.98 17.853C106.962 17.727 106.402 17.0787 106.402 16.9887C106.402 16.8987 106.781 16.5205 106.908 16.3584C107.034 16.1963 107.467 15.782 107.467 15.782L108.044 15.0615L108.82 14.4311L109.668 13.9807ZM104.49 53.6203H104.923L106.494 57.584L109.695 62.3954C108.558 63.0889 107.256 64.0325 106.763 64.966C106.37 65.7094 106.66 67.4858 106.66 67.4858L106.891 68.5932L107.335 69.036V69.751L106.865 70.0051L94.5334 74.1985L94.85 75.1854C94.5164 74.9576 94.1817 74.7321 93.8452 74.5114C90.32 72.1987 82.6592 68.6043 82.6592 68.6043L75.9116 66.1909L68.4784 64.21L66.4578 64.1017L65.9163 63.8858C65.9163 63.8858 65.9767 63.4927 66.0967 63.3453C66.3074 63.0863 66.8126 62.8994 67.1418 62.841C69.9635 62.3399 72.2708 61.8433 74.859 61.4026C77.5578 60.9432 80.0316 60.3449 82.7646 60.1818C84.0052 60.1077 85.0198 60.2608 86.4899 60.0289C87.4475 59.8779 89.2452 59.0101 89.5004 58.8573C89.7556 58.7045 92.6644 56.6672 92.6644 56.6672C92.6644 56.6672 95.3756 56.8518 96.7319 56.9339C97.5977 56.9863 98.8248 57.0781 99.33 57.0781C99.8351 57.0781 101.603 56.5093 102.541 55.8533C103.128 55.4433 103.477 54.7707 103.949 54.2325C104.128 54.0277 104.49 53.6203 104.49 53.6203ZM142.149 57.0972L142.275 57.3494L132.713 59.8345L126.687 59.6545L131.107 59.1505C131.107 59.1505 135.978 58.0336 136.195 57.9615C136.411 57.8894 142.149 57.0972 142.149 57.0972ZM112.64 66.6414L113.342 67.6063L111.963 68.1779L112.156 66.9504C112.156 66.9504 112.521 66.7174 112.64 66.6414ZM134.131 67.4616C133.432 67.8238 132.736 68.176 132.083 68.4938C130.129 69.4444 128.102 70.2349 126.025 70.8749C122.951 71.8222 117.535 73.6677 117.535 73.6677L123.675 68.7762L123.933 68.7073L131.475 68.1672L134.131 67.4616ZM37.6515 80.9865H41.136C41.4496 82.711 41.7752 84.4628 42.0425 85.7534C42.2384 86.699 42.4649 87.6378 42.6898 88.5769H32.2566C30.1317 88.5271 30.4682 86.2296 30.5165 83.7052L32.201 82.6962L34.9021 82.0938L37.6515 80.9865ZM62.5119 84.3092L63.7512 84.9931C63.7512 84.9931 69.6172 85.4781 72.5555 85.6415C75.1034 85.7833 77.9871 85.7774 80.4939 86.2537C82.2728 86.5918 83.929 86.5844 85.3293 87.7304C85.5158 87.8829 85.4985 88.1521 85.4462 88.3871C85.2244 89.3826 83.9708 89.4458 83.1642 90.0717C81.4017 91.4395 79.7045 92.904 78.1488 94.5022C75.9648 96.7459 72.1226 101.706 72.1226 101.706L68.8749 107.541L65.0502 113.232L62.5243 116.474L59.7099 119.032L57.4876 118.337L57.9055 116.042L59.9262 112.296L61.7653 110.204L62.2357 105.02L62.7094 97.1126L63.1017 86.5058L62.5119 84.3092ZM100.791 89.9377L103.953 99.4795L103.862 99.5083L104.314 100.871L99.8968 102.303L99.1457 100.039L100.77 99.5016L100.141 97.6043L94.6686 99.4137L95.2981 101.311L97.2455 100.667L97.6448 101.87L96.524 102.17L96.46 101.933L86.7077 104.541L87.1489 106.185L96.9013 103.577L96.8081 103.229L97.9902 102.912L97.9967 102.931L98.6806 104.992L98.7856 105.308L98.7998 105.303L101.656 112.749L86.9076 125.974L86.5248 125.513L86.7884 125.282C86.7884 125.282 87.2637 124.48 87.3003 124.29C87.3369 124.099 87.4207 123.187 87.4207 123.187L87.0679 122.296L86.629 121.797L87.1961 120.948L88.2388 121.017L88.9287 120.412L88.6836 120.133L88.9141 119.931L89.1386 120.187L90.3948 119.087L89.8502 117.985L89.9221 116.884L90.1976 116.643L90.327 116.79L91.0706 116.139L90.9419 115.879L91.0647 115.776L90.6696 115.327L90.6317 115.284L90.2366 114.835L90.1194 114.943L89.8779 114.782L89.1347 115.434L89.2638 115.581L88.9883 115.822L87.8853 115.751L86.8623 115.069L85.606 116.17L85.831 116.425L85.6005 116.628L85.355 116.349L84.6652 116.953L84.5972 117.994L83.6812 118.445L83.2423 117.946L82.4028 117.482C82.4028 117.482 81.4864 117.446 81.2923 117.458C81.0981 117.469 80.2404 117.836 80.2404 117.836L72.3965 124.709C72.4759 124.422 72.5579 124.161 72.5579 124.161L71.7413 122.735L72.507 119.576L71.7855 119.645C71.8436 119.143 71.9055 118.635 71.9055 118.635L74.1429 115.645L80.9627 109.126L86.9167 104.011C86.9167 104.011 93.2297 98.2344 96.1898 95.1503C97.3749 93.9155 98.4899 92.6139 99.5815 91.2961C99.9652 90.8329 100.384 90.3892 100.79 89.9365L100.791 89.9377ZM43.5124 100.383H43.9221V101.091H46.7376C46.7437 101.104 46.75 101.117 46.7558 101.13C47.1712 102.05 47.8328 102.882 48.0546 103.867C48.2464 104.719 48.1408 105.617 48.0546 106.485C47.7228 109.829 46.6227 113.054 46.0734 116.368C45.9469 117.131 45.84 117.895 45.7415 118.659C45.5492 118.765 45.363 118.895 45.1747 118.998C44.4107 119.414 43.5425 119.748 42.9819 120.413C42.7073 120.738 42.4807 121.588 42.4807 121.588L42.2443 122.711L41.9294 122.833L40.7904 122.331L39.8953 122.677L36.9251 114.689L35.8473 115.059L30.5228 101.14H32.9962V100.802H43.5127L43.5124 100.383ZM105.743 105.168L106.746 108.186L102.172 112.288L100.137 106.984L105.743 105.168ZM108.969 114.876L110.784 120.339L110.136 121.46H106.449L105.827 121.818L104.65 118.749L108.969 114.876ZM104.135 119.21L105.261 122.145L104.324 122.685V126.034H103.98V128.708C97.388 130.965 91.8954 135.496 88.5618 141.428L80.1913 140.681L104.135 119.21ZM108.894 123.169H111.724L113.03 127.098C111.776 127.126 110.525 127.234 109.286 127.422V126.034H108.894V123.169ZM42.9416 124.508L43.8746 125.18C43.8746 125.18 44.615 125.655 45.0377 125.711C45.0757 125.717 45.1138 125.716 45.1518 125.719C45.1066 126.743 45.0753 127.769 45.0539 128.798C44.983 132.21 45.6759 135.595 45.9636 138.996L41.1802 126.131L42.1235 125.766L42.6267 124.63L42.9416 124.508ZM55.3322 132.951L61.2522 134.71L60.9747 135.725L62.7918 136.241L61.5932 139.591L60.0694 139.589C59.8882 139.58 59.707 139.573 59.5256 139.57C59.4055 139.575 59.2852 139.58 59.1652 139.588L54.7457 139.581L54.8748 136.356L55.3322 132.951ZM67.8677 136.445L69.8493 136.934C69.8493 136.934 71.7748 137.409 73.6542 137.859L71.7077 139.605L64.8776 139.596L65.7747 137.089L67.2511 137.508L67.8677 136.445ZM73.6026 147.477L85.8256 148.567C85.3861 150.478 85.1607 152.428 85.1535 154.385C85.1624 155.71 85.271 157.033 85.4791 158.343L74.8759 160.074C75.4424 158.477 75.7334 156.802 75.739 155.115C75.7257 152.435 74.9898 149.804 73.6026 147.477ZM42.2182 147.487L43.7503 151.607C43.4654 152.757 43.3179 153.934 43.3114 155.116C43.3115 155.242 43.3138 155.368 43.3176 155.495L41.3076 159.626L41.3798 162.435L40.225 162.939L40.9469 163.948L46.0708 165.028L47.0006 164.974C47.7704 165.872 48.6495 166.693 49.6287 167.417L55.6344 183.569H25.0886L25.3159 183.091C27.695 182.719 29.4488 180.674 29.452 178.27C29.45 177.402 29.2169 176.55 28.776 175.802L42.2182 147.487ZM87.6187 165.446C92.1499 175.311 102.278 181.677 113.464 181.692C119.215 181.689 124.829 179.998 129.558 176.843L131.794 183.569H62.5355L57.6914 170.541C58.2995 170.614 58.9118 170.654 59.5246 170.66C62.2183 170.654 64.8681 170.006 67.2349 168.773L87.6187 165.446Z" fill="black"/>
</svg>
