<svg width="128" height="128" viewBox="0 0 128 128" fill="none" xmlns="http://www.w3.org/2000/svg">
<rect width="128" height="128" rx="28" fill="white"/>
<path d="M101.5 61.5H99V51.5C99 50.1739 98.4732 48.9021 97.5355 47.9645C96.5979 47.0268 95.3261 46.5 94 46.5H89V44C89 42.6739 88.4732 41.4021 87.5355 40.4645C86.5979 39.5268 85.3261 39 84 39H76.5C75.1739 39 73.9021 39.5268 72.9645 40.4645C72.0268 41.4021 71.5 42.6739 71.5 44V61.5H56.5V44C56.5 42.6739 55.9732 41.4021 55.0355 40.4645C54.0979 39.5268 52.8261 39 51.5 39H44C42.6739 39 41.4021 39.5268 40.4645 40.4645C39.5268 41.4021 39 42.6739 39 44V46.5H34C32.6739 46.5 31.4021 47.0268 30.4645 47.9645C29.5268 48.9021 29 50.1739 29 51.5V61.5H26.5C25.837 61.5 25.2011 61.7634 24.7322 62.2322C24.2634 62.7011 24 63.337 24 64C24 64.663 24.2634 65.2989 24.7322 65.7678C25.2011 66.2366 25.837 66.5 26.5 66.5H29V76.5C29 77.8261 29.5268 79.0979 30.4645 80.0355C31.4021 80.9732 32.6739 81.5 34 81.5H39V84C39 85.3261 39.5268 86.5979 40.4645 87.5355C41.4021 88.4732 42.6739 89 44 89H51.5C52.8261 89 54.0979 88.4732 55.0355 87.5355C55.9732 86.5979 56.5 85.3261 56.5 84V66.5H71.5V84C71.5 85.3261 72.0268 86.5979 72.9645 87.5355C73.9021 88.4732 75.1739 89 76.5 89H84C85.3261 89 86.5979 88.4732 87.5355 87.5355C88.4732 86.5979 89 85.3261 89 84V81.5H94C95.3261 81.5 96.5979 80.9732 97.5355 80.0355C98.4732 79.0979 99 77.8261 99 76.5V66.5H101.5C102.163 66.5 102.799 66.2366 103.268 65.7678C103.737 65.2989 104 64.663 104 64C104 63.337 103.737 62.7011 103.268 62.2322C102.799 61.7634 102.163 61.5 101.5 61.5ZM34 76.5V51.5H39V76.5H34ZM51.5 84H44V44H51.5V84ZM84 84H76.5V44H84V78.9438C84 78.9625 84 78.9813 84 79C84 79.0187 84 79.0375 84 79.0562V84ZM94 76.5H89V51.5H94V76.5Z" fill="black"/>
</svg>
